<svg width="24" height="24" viewBox="0 0 24 24" fill="none" xmlns="http://www.w3.org/2000/svg">
<mask id="mask0_7746_76954" style="mask-type:alpha" maskUnits="userSpaceOnUse" x="0" y="0" width="24" height="24">
<rect width="24" height="24" fill="#C4C4C4"/>
</mask>
<g mask="url(#mask0_7746_76954)">
</g>
<path d="M6 3.31778H11.1864V8.63058H6V10.1437H11.4284C12.0964 10.1437 12.638 9.57915 12.638 8.88277V6.72862H16.1833V16.6271H12.638V14.7176C12.638 14.0212 12.0964 13.4567 11.4284 13.4567H6V14.9698H11.1864V20.2826H6V21.7957H11.4284C12.0964 21.7957 12.638 21.2311 12.638 20.5347V18.1402H16.4252C17.0933 18.1402 17.6349 17.5757 17.6349 16.8793V12.4372H21V10.9241H17.6349V6.47644C17.6349 5.78006 17.0933 5.21553 16.4252 5.21553H12.638V3.0656C12.638 2.36922 12.0964 1.80469 11.4284 1.80469H6V3.31778Z" fill="#BBF55A"/>
</svg>
