<svg width="20" height="12" viewBox="0 0 20 12" fill="none" xmlns="http://www.w3.org/2000/svg">
<path d="M13.7497 6.83366C12.7497 6.83366 11.1913 7.11699 9.99967 7.66699C8.80801 7.10866 7.24967 6.83366 6.24967 6.83366C4.44134 6.83366 0.833008 7.73366 0.833008 9.54199V11.8337H19.1663V9.54199C19.1663 7.73366 15.558 6.83366 13.7497 6.83366ZM10.4163 10.5837H2.08301V9.54199C2.08301 9.09199 4.21634 8.08366 6.24967 8.08366C8.28301 8.08366 10.4163 9.09199 10.4163 9.54199V10.5837ZM17.9163 10.5837H11.6663V9.54199C11.6663 9.15866 11.4997 8.82533 11.233 8.52533C11.9663 8.27533 12.8663 8.08366 13.7497 8.08366C15.783 8.08366 17.9163 9.09199 17.9163 9.54199V10.5837ZM6.24967 6.00033C7.85801 6.00033 9.16634 4.69199 9.16634 3.08366C9.16634 1.47533 7.85801 0.166992 6.24967 0.166992C4.64134 0.166992 3.33301 1.47533 3.33301 3.08366C3.33301 4.69199 4.64134 6.00033 6.24967 6.00033ZM6.24967 1.41699C7.16634 1.41699 7.91634 2.16699 7.91634 3.08366C7.91634 4.00033 7.16634 4.75033 6.24967 4.75033C5.33301 4.75033 4.58301 4.00033 4.58301 3.08366C4.58301 2.16699 5.33301 1.41699 6.24967 1.41699ZM13.7497 6.00033C15.358 6.00033 16.6663 4.69199 16.6663 3.08366C16.6663 1.47533 15.358 0.166992 13.7497 0.166992C12.1413 0.166992 10.833 1.47533 10.833 3.08366C10.833 4.69199 12.1413 6.00033 13.7497 6.00033ZM13.7497 1.41699C14.6663 1.41699 15.4163 2.16699 15.4163 3.08366C15.4163 4.00033 14.6663 4.75033 13.7497 4.75033C12.833 4.75033 12.083 4.00033 12.083 3.08366C12.083 2.16699 12.833 1.41699 13.7497 1.41699Z" fill="#BBF55A"/>
</svg>
