<svg width="18" height="18" viewBox="0 0 18 18" fill="none" xmlns="http://www.w3.org/2000/svg">
<path d="M8.99199 0.666992C4.39199 0.666992 0.666992 4.40033 0.666992 9.00033C0.666992 13.6003 4.39199 17.3337 8.99199 17.3337C13.6003 17.3337 17.3337 13.6003 17.3337 9.00033C17.3337 4.40033 13.6003 0.666992 8.99199 0.666992ZM9.00033 15.667C5.31699 15.667 2.33366 12.6837 2.33366 9.00033C2.33366 5.31699 5.31699 2.33366 9.00033 2.33366C12.6837 2.33366 15.667 5.31699 15.667 9.00033C15.667 12.6837 12.6837 15.667 9.00033 15.667ZM9.41699 4.83366H8.16699V9.83366L12.542 12.4587L13.167 11.4337L9.41699 9.20866V4.83366Z" fill="#BBF55A"/>
</svg>
