<svg width="120" height="43" viewBox="0 0 120 43" fill="none" xmlns="http://www.w3.org/2000/svg">
<path fill-rule="evenodd" clip-rule="evenodd" d="M87.0987 7.55304C86.7881 5.26913 85.6706 3.30287 83.6351 2.0994C81.8557 1.03239 79.8769 0.638689 77.8527 0.585003C75.7333 0.53579 73.6117 0.524606 71.49 0.524606L66.127 0.5C66.127 0.5 60.2199 18.4491 59.1296 21.7889C58.9576 22.3178 58.789 22.8476 58.6119 23.4041L58.6116 23.4052C58.5042 23.7427 58.3937 24.0901 58.2773 24.453H59.0752H69.5679C71.6266 24.4833 73.6805 24.2464 75.6767 23.7484C78.2834 23.0773 80.6634 21.9589 82.6446 20.1313C86.3574 16.7267 87.7696 12.4743 87.0987 7.55304ZM74.5478 18.5856C73.4736 18.8703 72.3704 19.0354 71.2588 19.0777C70.5199 19.109 66.4489 19.1224 66.4489 19.1224C66.7415 18.2403 68.4751 13.0433 69.6671 9.47026L69.6763 9.44241L69.6806 9.42964C70.3286 7.48726 70.8131 6.03482 70.8123 6.0364C70.8116 6.03768 71.1465 6.03934 71.6419 6.04178L71.6421 6.04178C72.8726 6.04785 75.0932 6.05881 75.62 6.08114C75.9396 6.0968 76.2592 6.1214 76.5788 6.15272C77.2628 6.24057 77.9329 6.41266 78.5735 6.66498C80.3121 7.36066 80.8199 8.86388 80.7995 10.5528C80.7586 12.3738 80.1304 14.1345 79.0062 15.5791C77.8819 17.0237 76.3201 18.0769 74.5478 18.5856ZM102.059 20.8474L99.6721 24.4757L92.7949 24.4734C92.9943 24.1877 93.1889 23.9083 93.3805 23.6332C93.7244 23.1392 94.0589 22.659 94.3952 22.1806C99.2822 15.2662 109.741 0.520386 109.741 0.520386L118.64 0.540519L120 24.4757H113.578L113.445 20.8474H102.059ZM112.892 6.73681H111.928L105.182 16.3019C105.173 16.3109 113.32 16.3556 113.32 16.3556L112.892 6.73681ZM63.8421 0.536194L62.7745 3.79764L62.7283 3.93798C62.6536 4.16547 62.5796 4.39064 62.5025 4.60964L62.2237 5.45744L56.0015 24.4713H49.5414L49.7794 23.7466L49.8082 23.6519L49.8083 23.6516L49.8084 23.6513L49.8085 23.6511L49.8085 23.6509C49.9436 23.2069 50.0776 22.7668 50.2214 22.3306C51.79 17.5585 53.3593 12.7864 54.9294 8.01425L57.382 0.536194H63.8421ZM24.7118 1.39306C27.0941 2.35494 28.2025 4.18475 28.3634 6.60511C28.6785 11.381 26.3143 15.5953 21.4046 17.5191C19.4598 18.2819 17.4469 18.5391 15.3683 18.5503C13.2898 18.5615 8.60446 18.566 8.60446 18.4877C8.60446 18.4094 7.16736 22.3687 6.58935 24.0017L6.42614 24.4849H6.10427C4.12316 24.5005 2.13751 24.5005 0 24.5005C0.187153 23.921 0.384596 23.3298 0.573914 22.763L0.573932 22.7629L0.573994 22.7628C0.717123 22.3342 0.855608 21.9196 0.981489 21.5344C2.0816 18.2371 3.17794 14.9399 4.2705 11.6427C5.26559 8.63848 7.97431 0.54303 7.97431 0.54303L11.023 0.572111H19.3011C21.1553 0.585533 22.9687 0.697379 24.7118 1.39306ZM19.0189 12.7241C19.7021 12.3951 20.3079 11.9284 20.7971 11.3541C21.7197 10.2759 21.9781 9.00757 21.7356 7.65423C21.561 6.67222 20.575 5.97206 19.2943 5.94074C18.4579 5.91166 17.6215 5.91166 16.785 5.91166L12.408 5.8535L10.1118 13.3204H10.4904C10.6267 13.334 10.7637 13.34 10.9006 13.3383H13.8972C13.8972 13.3304 14.1989 13.3266 14.6243 13.3213H14.6243H14.6243H14.6244H14.6245H14.6245C15.2831 13.3131 16.2383 13.3011 16.8304 13.2644C17.5901 13.2372 18.3357 13.0532 19.0189 12.7241ZM99.323 0.536194H92.8629L85.0246 24.4713H91.4847L92.6181 21.0511C93.2498 19.1452 93.8799 17.2379 94.5085 15.329C95.8429 11.2623 97.1757 7.19553 98.507 3.1288C98.7001 2.53779 98.8883 1.94442 99.0866 1.31935C99.1607 1.08561 99.2363 0.84744 99.314 0.603302L99.323 0.536194ZM30.5123 20.8474L28.1277 24.4757L21.2483 24.4734C21.4439 24.1932 21.6345 23.9191 21.8223 23.6491C22.1696 23.1496 22.5072 22.6641 22.8486 22.1806C27.7356 15.2662 38.1942 0.520386 38.1942 0.520386L47.0934 0.540519L48.4534 24.4757H42.0341L41.9003 20.8474H30.5123ZM41.3472 6.73681H40.3839L33.6381 16.3019C33.6291 16.3109 41.7757 16.3556 41.7757 16.3556L41.3472 6.73681Z" fill="#BBF55A"/>
<path d="M1 40.884L3.196 28.5H11.098C11.866 28.5 12.484 28.638 12.952 28.914C13.432 29.178 13.78 29.52 13.996 29.94C14.224 30.36 14.338 30.804 14.338 31.272C14.338 31.764 14.23 32.232 14.014 32.676C13.798 33.12 13.498 33.498 13.114 33.81C12.73 34.122 12.274 34.326 11.746 34.422L11.728 34.494C12.256 34.662 12.7 34.956 13.06 35.376C13.432 35.784 13.618 36.33 13.618 37.014C13.618 37.818 13.432 38.514 13.06 39.102C12.688 39.678 12.184 40.122 11.548 40.434C10.924 40.734 10.222 40.884 9.442 40.884H1ZM5.5 38.004H8.56C8.8 38.004 8.998 37.944 9.154 37.824C9.322 37.704 9.448 37.548 9.532 37.356C9.616 37.152 9.658 36.936 9.658 36.708C9.658 36.48 9.586 36.288 9.442 36.132C9.31 35.964 9.088 35.88 8.776 35.88H5.86L5.5 38.004ZM6.31 33.324H9.046C9.25 33.324 9.424 33.294 9.568 33.234C9.712 33.162 9.826 33.066 9.91 32.946C10.006 32.826 10.072 32.694 10.108 32.55C10.156 32.394 10.18 32.238 10.18 32.082C10.18 31.854 10.114 31.656 9.982 31.488C9.862 31.308 9.664 31.218 9.388 31.218H6.688L6.31 33.324Z" fill="#736CFF"/>
<path d="M15.0098 40.884L17.2058 28.5H27.9158L27.3938 31.47H20.6618L20.3558 33.18H26.1158L25.6118 36.024H19.8518L19.5098 37.914H26.3678L25.8458 40.884H15.0098Z" fill="#736CFF"/>
<path d="M31.186 40.884L32.824 31.668H28.756L29.314 28.5H41.41L40.852 31.668H36.802L35.164 40.884H31.186Z" fill="#736CFF"/>
<path d="M38.3968 40.884L45.1288 28.5H49.7548L52.0588 40.884H47.9728L47.7568 39.138H43.4008L42.5728 40.884H38.3968ZM44.7148 36.366H47.4148L47.1808 34.386C47.1568 34.182 47.1328 33.978 47.1088 33.774C47.0848 33.57 47.0548 33.372 47.0188 33.18C46.9948 32.976 46.9708 32.772 46.9468 32.568C46.9228 32.364 46.8988 32.16 46.8748 31.956H46.8028C46.6828 32.22 46.5568 32.49 46.4248 32.766C46.2928 33.03 46.1608 33.3 46.0288 33.576C45.9088 33.84 45.7828 34.11 45.6508 34.386L44.7148 36.366Z" fill="#736CFF"/>
</svg>
